<svg width="13" height="10" viewBox="0 0 13 10" fill="none" xmlns="http://www.w3.org/2000/svg">
<g clip-path="url(#clip0_5_323)">
<path d="M12.481 4.54019C11.9801 3.24442 11.3809 2.12385 10.2501 1.31695C9.11921 0.510051 7.77668 0.052205 6.38846 0C5.00021 0.052205 3.65769 0.510051 2.52682 1.31695C1.39596 2.12385 -0.187583 4.04613 0.0253733 4.82981C-0.00845778 4.73625 -0.00845778 4.92337 0.0253733 4.82981C0.212954 6.17567 1.39596 7.24615 2.52682 8.05305C3.65769 8.85994 5.00021 9.31781 6.38846 9.37C7.77668 9.31781 9.11921 8.85994 10.2501 8.05305C11.3809 7.24615 11.9801 6.12559 12.481 4.82981C12.5149 4.73625 12.5149 4.63376 12.481 4.54019ZM6.38846 8.51817C4.13113 8.51817 1.22023 6.10755 1.03691 4.82981C1.2456 3.55208 4.13113 0.851817 6.38846 0.851817C8.64579 0.851817 8.52942 2.52564 9.39399 4.685C8.52942 6.84436 8.64579 8.51817 6.38846 8.51817Z" fill="#3397E1"/>
<path d="M6.41373 1.9166C5.90832 1.9166 5.41423 2.06648 4.99399 2.34728C4.57375 2.62807 4.24622 3.02718 4.0528 3.49413C3.85938 3.96108 3.80878 4.4749 3.90738 4.9706C4.00598 5.46632 4.24937 5.92165 4.60675 6.27902C4.96415 6.63644 5.41948 6.87983 5.9152 6.9784C6.41088 7.07702 6.92473 7.02642 7.39168 6.83298C7.85863 6.63958 8.2577 6.31205 8.53852 5.89181C8.81929 5.47156 8.96917 4.97748 8.96917 4.47206C8.96917 3.79431 8.69997 3.14432 8.22069 2.66508C7.74146 2.18584 7.09147 1.9166 6.41373 1.9166ZM6.41373 6.17572C6.07679 6.17572 5.74738 6.07579 5.46722 5.88858C5.18706 5.70136 4.96874 5.4353 4.83976 5.12403C4.71083 4.81271 4.6771 4.47017 4.74283 4.1397C4.80856 3.80922 4.9708 3.50566 5.20908 3.26741C5.44736 3.02915 5.7509 2.8669 6.08138 2.80116C6.41186 2.73543 6.75438 2.76916 7.0657 2.89811C7.37697 3.02705 7.64308 3.24541 7.83024 3.52557C8.01746 3.80573 8.11739 4.13511 8.11739 4.47206C8.11739 4.92389 7.93786 5.3572 7.61839 5.67672C7.29887 5.99619 6.86555 6.17572 6.41373 6.17572Z" fill="#3397E1"/>
</g>
<defs>
<clipPath id="clip0_5_323">
<rect width="12.6495" height="9.37" fill="white"/>
</clipPath>
</defs>
</svg>
